<svg width="50" height="50" viewBox="0 0 50 50" fill="none" xmlns="http://www.w3.org/2000/svg">
<g id="11144339_fabric_texture_pattern_bedsheet_bedding_icon 2">
<g id="Group">
<path id="Vector" d="M19.0126 14.5219V4.54292C19.0126 3.99174 18.5658 3.54492 18.0146 3.54492C17.4634 3.54492 17.0166 3.99174 17.0166 4.54292V14.5219C17.0166 15.0731 17.4634 15.5199 18.0146 15.5199C18.5658 15.5199 19.0126 15.0731 19.0126 14.5219Z" fill="#434343"/>
<path id="Vector_2" d="M25.998 7.53592V4.54292C25.998 3.99174 25.5511 3.54492 25 3.54492C24.4488 3.54492 24.002 3.99174 24.002 4.54292V7.53592C24.002 8.0871 24.4488 8.53392 25 8.53392C25.5511 8.53392 25.998 8.0871 25.998 7.53592Z" fill="#434343"/>
<path id="Vector_3" d="M25.998 21.507V15.52C25.998 14.9688 25.5511 14.522 25 14.522C24.4488 14.522 24.002 14.9688 24.002 15.52V21.507C24.002 22.0582 24.4488 22.505 25 22.505C25.5511 22.505 25.998 22.0582 25.998 21.507Z" fill="#434343"/>
<path id="Vector_4" d="M32.9833 14.5219V4.54292C32.9833 3.99174 32.5365 3.54492 31.9853 3.54492C31.4341 3.54492 30.9873 3.99174 30.9873 4.54292V14.5219C30.9873 15.0731 31.4341 15.5199 31.9853 15.5199C32.5365 15.5199 32.9833 15.0731 32.9833 14.5219Z" fill="#434343"/>
<path id="Vector_5" d="M27.9928 10.5308H22.0058C21.4546 10.5308 21.0078 10.9776 21.0078 11.5288C21.0078 12.0799 21.4546 12.5268 22.0058 12.5268H27.9928C28.544 12.5268 28.9908 12.0799 28.9908 11.5288C28.9908 10.9776 28.544 10.5308 27.9928 10.5308Z" fill="#434343"/>
<path id="Vector_6" d="M34.9791 17.5161H27.9941C27.4429 17.5161 26.9961 17.9629 26.9961 18.5141C26.9961 19.0653 27.4429 19.5121 27.9941 19.5121H34.9791C35.5303 19.5121 35.9771 19.0653 35.9771 18.5141C35.9771 17.9629 35.5303 17.5161 34.9791 17.5161Z" fill="#434343"/>
<path id="Vector_7" d="M12.0282 7.53592V4.54292C12.0282 3.99174 11.5814 3.54492 11.0302 3.54492C10.479 3.54492 10.0322 3.99174 10.0322 4.54292V7.53592C10.0322 8.0871 10.479 8.53392 11.0302 8.53392C11.5814 8.53392 12.0282 8.0871 12.0282 7.53592Z" fill="#434343"/>
<path id="Vector_8" d="M12.0282 45.4558V42.4628C12.0282 41.9117 11.5814 41.4648 11.0302 41.4648C10.479 41.4648 10.0322 41.9117 10.0322 42.4628V45.4558C10.0322 46.007 10.479 46.4538 11.0302 46.4538C11.5814 46.4538 12.0282 46.007 12.0282 45.4558Z" fill="#434343"/>
<path id="Vector_9" d="M25.998 45.4558V42.4628C25.998 41.9117 25.5511 41.4648 25 41.4648C24.4488 41.4648 24.002 41.9117 24.002 42.4628V45.4558C24.002 46.007 24.4488 46.4538 25 46.4538C25.5511 46.4538 25.998 46.007 25.998 45.4558Z" fill="#434343"/>
<path id="Vector_10" d="M39.9687 45.4558V42.4628C39.9687 41.9117 39.5218 41.4648 38.9707 41.4648C38.4195 41.4648 37.9727 41.9117 37.9727 42.4628V45.4558C37.9727 46.007 38.4195 46.4538 38.9707 46.4538C39.5218 46.4538 39.9687 46.007 39.9687 45.4558Z" fill="#434343"/>
<path id="Vector_11" d="M12.0282 21.507V15.52C12.0282 14.9688 11.5814 14.522 11.0302 14.522C10.479 14.522 10.0322 14.9688 10.0322 15.52V21.507C10.0322 22.0582 10.479 22.505 11.0302 22.505C11.5814 22.505 12.0282 22.0582 12.0282 21.507Z" fill="#434343"/>
<path id="Vector_12" d="M14.0229 10.5308H5.04194C4.49077 10.5308 4.04395 10.9776 4.04395 11.5288C4.04395 12.0799 4.49077 12.5268 5.04195 12.5268H14.0229C14.5741 12.5268 15.0209 12.0799 15.0209 11.5288C15.0209 10.9776 14.5741 10.5308 14.0229 10.5308Z" fill="#434343"/>
<path id="Vector_13" d="M21.0075 17.5161H15.0205C14.4693 17.5161 14.0225 17.9629 14.0225 18.5141C14.0225 19.0653 14.4693 19.5121 15.0205 19.5121H21.0075C21.5586 19.5121 22.0055 19.0653 22.0055 18.5141C22.0055 17.9629 21.5586 17.5161 21.0075 17.5161Z" fill="#434343"/>
<path id="Vector_14" d="M39.9687 7.53592V4.54292C39.9687 3.99174 39.5218 3.54492 38.9707 3.54492C38.4195 3.54492 37.9727 3.99174 37.9727 4.54292V7.53592C37.9727 8.0871 38.4195 8.53392 38.9707 8.53392C39.5218 8.53392 39.9687 8.0871 39.9687 7.53592Z" fill="#434343"/>
<path id="Vector_15" d="M39.9687 21.507V15.52C39.9687 14.9688 39.5218 14.522 38.9707 14.522C38.4195 14.522 37.9727 14.9688 37.9727 15.52V21.507C37.9727 22.0582 38.4195 22.505 38.9707 22.505C39.5218 22.505 39.9687 22.0582 39.9687 21.507Z" fill="#434343"/>
<path id="Vector_16" d="M44.9575 10.5308H35.9765C35.4253 10.5308 34.9785 10.9776 34.9785 11.5288C34.9785 12.0799 35.4253 12.5268 35.9765 12.5268H44.9575C45.5087 12.5268 45.9555 12.0799 45.9555 11.5288C45.9555 10.9776 45.5087 10.5308 44.9575 10.5308Z" fill="#434343"/>
<path id="Vector_17" d="M19.0126 28.4918V22.5048C19.0126 21.9537 18.5658 21.5068 18.0146 21.5068C17.4634 21.5068 17.0166 21.9537 17.0166 22.5048V28.4918C17.0166 29.043 17.4634 29.4898 18.0146 29.4898C18.5658 29.4898 19.0126 29.043 19.0126 28.4918Z" fill="#434343"/>
<path id="Vector_18" d="M32.9833 29.4898V22.5048C32.9833 21.9537 32.5365 21.5068 31.9853 21.5068C31.4341 21.5068 30.9873 21.9537 30.9873 22.5048V29.4898C30.9873 30.041 31.4341 30.4878 31.9853 30.4878C32.5365 30.4878 32.9833 30.041 32.9833 29.4898Z" fill="#434343"/>
<path id="Vector_19" d="M27.9928 24.501H22.0058C21.4546 24.501 21.0078 24.9478 21.0078 25.499C21.0078 26.0502 21.4546 26.497 22.0058 26.497H27.9928C28.544 26.497 28.9908 26.0502 28.9908 25.499C28.9908 24.9478 28.544 24.501 27.9928 24.501Z" fill="#434343"/>
<path id="Vector_20" d="M14.0229 24.501H5.04195C4.49077 24.501 4.04395 24.9478 4.04395 25.499C4.04395 26.0502 4.49077 26.497 5.04195 26.497H14.0229C14.5741 26.497 15.0209 26.0502 15.0209 25.499C15.0209 24.9478 14.5741 24.501 14.0229 24.501Z" fill="#434343"/>
<path id="Vector_21" d="M42.9615 24.501H35.9765C35.4253 24.501 34.9785 24.9478 34.9785 25.499C34.9785 26.0502 35.4253 26.497 35.9765 26.497H42.9615C43.5127 26.497 43.9595 26.0502 43.9595 25.499C43.9595 24.9478 43.5127 24.501 42.9615 24.501Z" fill="#434343"/>
<path id="Vector_22" d="M25.998 34.4802V29.4912C25.998 28.94 25.5511 28.4932 25 28.4932C24.4488 28.4932 24.002 28.94 24.002 29.4912V34.4802C24.002 35.0313 24.4488 35.4782 25 35.4782C25.5511 35.4782 25.998 35.0313 25.998 34.4802Z" fill="#434343"/>
<path id="Vector_23" d="M34.9791 31.4858H28.9921C28.441 31.4858 27.9941 31.9327 27.9941 32.4838C27.9941 33.035 28.441 33.4818 28.9921 33.4818H34.9791C35.5303 33.4818 35.9771 33.035 35.9771 32.4838C35.9771 31.9327 35.5303 31.4858 34.9791 31.4858Z" fill="#434343"/>
<path id="Vector_24" d="M12.0282 34.4802V29.4912C12.0282 28.94 11.5814 28.4932 11.0302 28.4932C10.479 28.4932 10.0322 28.94 10.0322 29.4912V34.4802C10.0322 35.0313 10.479 35.4782 11.0302 35.4782C11.5814 35.4782 12.0282 35.0313 12.0282 34.4802Z" fill="#434343"/>
<path id="Vector_25" d="M21.0075 31.4858H15.0205C14.4693 31.4858 14.0225 31.9327 14.0225 32.4838C14.0225 33.035 14.4693 33.4818 15.0205 33.4818H21.0075C21.5586 33.4818 22.0055 33.035 22.0055 32.4838C22.0055 31.9327 21.5586 31.4858 21.0075 31.4858Z" fill="#434343"/>
<path id="Vector_26" d="M39.9687 34.4802V29.4912C39.9687 28.94 39.5218 28.4932 38.9707 28.4932C38.4195 28.4932 37.9727 28.94 37.9727 29.4912V34.4802C37.9727 35.0313 38.4195 35.4782 38.9707 35.4782C39.5218 35.4782 39.9687 35.0313 39.9687 34.4802Z" fill="#434343"/>
<path id="Vector_27" d="M19.0126 45.457V36.476C19.0126 35.9248 18.5658 35.478 18.0146 35.478C17.4634 35.478 17.0166 35.9248 17.0166 36.476V45.457C17.0166 46.0082 17.4634 46.455 18.0146 46.455C18.5658 46.455 19.0126 46.0082 19.0126 45.457Z" fill="#434343"/>
<path id="Vector_28" d="M32.9833 45.457V36.476C32.9833 35.9248 32.5365 35.478 31.9853 35.478C31.4341 35.478 30.9873 35.9248 30.9873 36.476V45.457C30.9873 46.0082 31.4341 46.455 31.9853 46.455C32.5365 46.455 32.9833 46.0082 32.9833 45.457Z" fill="#434343"/>
<path id="Vector_29" d="M27.9928 37.4741H22.0058C21.4546 37.4741 21.0078 37.9209 21.0078 38.4721C21.0078 39.0233 21.4546 39.4701 22.0058 39.4701H27.9928C28.544 39.4701 28.9908 39.0233 28.9908 38.4721C28.9908 37.9209 28.544 37.4741 27.9928 37.4741Z" fill="#434343"/>
<path id="Vector_30" d="M14.0229 37.4741H5.04195C4.49077 37.4741 4.04395 37.9209 4.04395 38.4721C4.04395 39.0233 4.49077 39.4701 5.04195 39.4701H14.0229C14.5741 39.4701 15.0209 39.0233 15.0209 38.4721C15.0209 37.9209 14.5741 37.4741 14.0229 37.4741Z" fill="#434343"/>
<path id="Vector_31" d="M44.9575 37.4741H35.9765C35.4253 37.4741 34.9785 37.9209 34.9785 38.4721C34.9785 39.0233 35.4253 39.4701 35.9765 39.4701H44.9575C45.5087 39.4701 45.9555 39.0233 45.9555 38.4721C45.9555 37.9209 45.5087 37.4741 44.9575 37.4741Z" fill="#434343"/>
<path id="Vector_32" d="M7.03795 17.5161H5.04194C4.49076 17.5161 4.04395 17.9629 4.04395 18.5141C4.04395 19.0653 4.49077 19.5121 5.04195 19.5121H7.03795C7.58913 19.5121 8.03595 19.0653 8.03595 18.5141C8.03595 17.9629 7.58913 17.5161 7.03795 17.5161Z" fill="#434343"/>
<path id="Vector_33" d="M7.03794 31.4858H5.04195C4.49077 31.4858 4.04395 31.9327 4.04395 32.4838C4.04395 33.035 4.49077 33.4818 5.04195 33.4818H7.03794C7.58912 33.4818 8.03595 33.035 8.03595 32.4838C8.03595 31.9327 7.58912 31.4858 7.03794 31.4858Z" fill="#434343"/>
<path id="Vector_34" d="M44.9579 17.5161H42.9619C42.4107 17.5161 41.9639 17.9629 41.9639 18.5141C41.9639 19.0653 42.4107 19.5121 42.9619 19.5121H44.9579C45.509 19.5121 45.9559 19.0653 45.9559 18.5141C45.9559 17.9629 45.509 17.5161 44.9579 17.5161Z" fill="#434343"/>
<path id="Vector_35" d="M44.9579 31.4858H42.9619C42.4107 31.4858 41.9639 31.9327 41.9639 32.4838C41.9639 33.035 42.4107 33.4818 42.9619 33.4818H44.9579C45.509 33.4818 45.9559 33.035 45.9559 32.4838C45.9559 31.9327 45.509 31.4858 44.9579 31.4858Z" fill="#434343"/>
</g>
</g>
</svg>
