<svg width="50" height="50" viewBox="0 0 50 50" fill="none" xmlns="http://www.w3.org/2000/svg">
<g id="game-icons:zipper">
<path id="Vector" d="M10.4515 1.68457L9.05371 4.4666L10.6246 5.25566L12.0223 2.47383L10.4515 1.68457ZM42.5312 2.12959L40.9016 2.78857L42.0686 5.6749L43.6981 5.01611L42.5312 2.12959ZM14.2314 3.36006L12.7339 6.08936L14.2748 6.93506L15.7727 4.20566L14.2314 3.36006ZM39.1369 3.52314L37.5662 4.3123L38.9639 7.09424L40.5346 6.30518L39.1369 3.52314ZM35.7273 5.27119L34.2594 6.23799L35.9717 8.83809L37.4397 7.87129L35.7273 5.27119ZM17.4564 5.44629L15.6718 7.99727L17.112 9.00488L18.8967 6.454L17.4564 5.44629ZM32.6215 7.22783L31.2363 8.30977L33.1526 10.7636L34.538 9.68154L32.6215 7.22783ZM20.4662 7.75713L18.3327 10.0243L19.6127 11.229L21.7465 8.96191L20.4662 7.75713ZM29.8746 9.60166L28.6963 10.906L31.0064 12.9932L32.1848 11.6889L29.8746 9.60166ZM23.2282 10.5916L20.7399 12.4625L21.7962 13.8675L24.2848 11.9966L23.2282 10.5916ZM27.2501 12.6838L26.4562 14.2521L29.2341 15.6581L30.028 14.0898L27.2501 12.6838ZM25 16.1133C23.3984 16.1133 21.6461 17.0967 19.3714 19.3714C19.0843 19.6585 19.0272 19.825 19.017 19.9979C19.0067 20.1709 19.0686 20.4372 19.3083 20.8368C19.7493 21.5718 20.7927 22.661 22.168 24.0425V19.4336H27.832V24.0425C29.2073 22.661 30.2507 21.5718 30.6917 20.8368C30.9314 20.4372 30.9932 20.171 30.983 19.9979C30.9728 19.825 30.9156 19.6585 30.6285 19.3714C28.354 17.0967 26.6016 16.1133 25 16.1133ZM23.9258 21.1914V29.6167C24.0923 30.8576 24.6459 31.1523 25 31.1523C25.3541 31.1523 25.9077 30.8576 26.0742 29.6167V21.1914H23.9258ZM22.168 28.5877L19.6363 43.7778C19.645 43.8938 19.7457 44.2452 20.0184 44.6541C20.303 45.0811 20.7389 45.5654 21.2658 46.0045C22.3195 46.8826 23.7305 47.5586 25 47.5586C26.2695 47.5586 27.6804 46.8826 28.7342 46.0045C29.2611 45.5654 29.697 45.0811 29.9816 44.6541C30.2542 44.2452 30.355 43.8938 30.3637 43.7778L27.832 28.5887C28.0231 30.5481 26.656 32.8537 25 32.9102C23.2092 32.8662 22.168 30.6863 22.168 28.5877ZM25 40.2344C26.7259 40.2344 28.125 41.2837 28.125 42.5781C28.125 43.8726 26.7259 44.9219 25 44.9219C23.2741 44.9219 21.875 43.8726 21.875 42.5781C21.875 41.2837 23.2741 40.2344 25 40.2344Z" fill="#434343"/>
</g>
</svg>
