<svg width="46" height="47" viewBox="0 0 46 47" fill="none" xmlns="http://www.w3.org/2000/svg">
<path d="M11.7994 4.8125L12.6769 9.0375C13.0354 11.0185 12.998 13.0509 12.5671 15.0174C12.1362 16.984 11.3203 18.8457 10.1663 20.4954C7.33882 24.6375 6.57507 29.7953 7.33719 35.6875L8.68757 42.1875" stroke="#434343" stroke-width="2" stroke-linecap="round" stroke-linejoin="round"/>
<path d="M36.3121 42.1875L37.6625 35.6875C38.4181 29.7953 37.6625 24.6375 34.8334 20.4954C33.6794 18.8457 32.8635 16.984 32.4326 15.0174C32.0017 13.0509 31.9643 11.0185 32.3228 9.0375L33.2003 4.8125" stroke="#434343" stroke-width="2" stroke-linecap="round" stroke-linejoin="round"/>
<path d="M3.8125 14.5625H9.5" stroke="#434343" stroke-width="2" stroke-linecap="round" stroke-linejoin="round"/>
<path d="M7.875 12.125L9.5 14.5625L7.875 17" stroke="#434343" stroke-width="2" stroke-linecap="round" stroke-linejoin="round"/>
<path d="M41.1875 14.5625H35.5" stroke="#434343" stroke-width="2" stroke-linecap="round" stroke-linejoin="round"/>
<path d="M37.125 12.125L35.5 14.5625L37.125 17" stroke="#434343" stroke-width="2" stroke-linecap="round" stroke-linejoin="round"/>
</svg>
