<svg width="24" height="24" viewBox="0 0 24 24" fill="none" xmlns="http://www.w3.org/2000/svg">
<path d="M9 22C9.55228 22 10 21.5523 10 21C10 20.4477 9.55228 20 9 20C8.44772 20 8 20.4477 8 21C8 21.5523 8.44772 22 9 22ZM17 22C17.5523 22 18 21.5523 18 21C18 20.4477 17.5523 20 17 20C16.4477 20 16 20.4477 16 21C16 21.5523 16.4477 22 17 22ZM22 4C22 4.55228 21.5523 5 21 5H6.68253L5.80712 11.7213C5.61076 13.2921 4.38324 14.4386 2.85714 14.4386H3C3.55228 14.4386 4 14.8863 4 15.4386C4 15.9908 3.55228 16.4386 3 16.4386H2C1.44772 16.4386 1 15.9908 1 15.4386C1 14.8863 1.44772 14.4386 2 14.4386H2.14286C3.34501 14.4386 4.43864 13.4743 4.65527 12.2901L6.05263 5H21C21.5523 5 22 4.55228 22 4ZM7.46907 19C7.73703 19 7.95122 18.7858 7.95122 18.5179C7.95122 18.2499 7.73703 18.0357 7.46907 18.0357H5.53093C5.26297 18.0357 5.04878 18.2499 5.04878 18.5179C5.04878 18.7858 5.26297 19 5.53093 19H7.46907ZM21 4H6.68253L5.80712 11.7213C5.61076 13.2921 4.38324 14.4386 2.85714 14.4386H2.14286C3.34501 14.4386 4.43864 13.4743 4.65527 12.2901L6.05263 5H21" fill="currentColor"/>
</svg>
